{"title":"Angel Haze Ft. Sia - Battle Cry [NSFW] 1080p [Sbyky]","uid":10249833,"size":62448437,"categoryP":"video","categoryS":"music_videos","magnet":"?xt=urn:btih:ca60c26da98a18f76afafbdb6f15f6930d7a2ef4&amp;dn=Angel+Haze+Ft.+Sia+-+Battle+Cry+%5BNSFW%5D+1080p+%5BSbyky%5D&amp;tr=udp%3A%2F%2Ftracker.openbittorrent.com%3A80&amp;tr=udp%3A%2F%2Fopen.demonii.com%3A1337&amp;tr=udp%3A%2F%2Ftracker.coppersurfer.tk%3A6969&amp;tr=udp%3A%2F%2Fexodus.desync.com%3A6969","seeders":0,"leechers":0,"uploader":"Sbyky","files":1,"time":1401335295,"description":"\n\nGeneral\nComplete name                            : Angel Haze Ft. Sia - Battle Cry [NSFW] 1080p [Sbyky].MP4\nFormat                                   : MPEG-4\nFormat profile                           : Base Media\nCodec ID                                 : isom\nFile size                                : 59.6 MiB\nDuration                                 : 3mn 50s\nOverall bit rate mode                    : Variable\nOverall bit rate                         : 2 164 Kbps\nEncoded date                             : UTC 2014-02-16 17:57:01\nTagged date                              : UTC 2014-02-16 17:57:01\n\nVideo\nID                                       : 1\nFormat                                   : AVC\nFormat/Info                              : Advanced Video Codec\nFormat profile                           : &lt;a class=&quot;__cf_email__&quot; href=&quot;/cdn-cgi/l/email-protection&quot; data-cfemail=&quot;662e0f010e262a524856&quot;&gt;[email&amp;#160;protected]&lt;/a&gt;&lt;script data-cfhash='f9e31' type=&quot;text/javascript&quot;&gt;\n/* &lt;![CDATA[ */!function(){try{var t=&quot;currentScript&quot;in document?document.currentScript:function(){for(var t=document.getElementsByTagName(&quot;script&quot;),e=t.length;e--;)if(t[e].getAttribute(&quot;data-cfhash&quot;))return t[e]}();if(t&amp;&amp;t.previousSibling){var e,r,n,i,c=t.previousSibling,a=c.getAttribute(&quot;data-cfemail&quot;);if(a){for(e=&quot;&quot;,r=parseInt(a.substr(0,2),16),n=2;a.length-n;n+=2)i=parseInt(a.substr(n,2),16)^r,e+=String.fromCharCode(i);e=document.createTextNode(e),c.parentNode.replaceChild(e,c)}t.parentNode.removeChild(t);}}catch(u){}}()/* ]]&gt; */&lt;/script&gt;\nFormat settings, CABAC                   : Yes\nFormat settings, ReFrames                : 3 frames\nCodec ID                                 : avc1\nCodec ID/Info                            : Advanced Video Coding\nDuration                                 : 3mn 50s\nDuration_LastFrame                       : -39ms\nBit rate                                 : 2 037 Kbps\nWidth                                    : 1 920 pixels\nHeight                                   : 1 080 pixels\nDisplay aspect ratio                     : 16:9\nFrame rate mode                          : Constant\nFrame rate                               : 25.000 fps\nColor space                              : YUV\nChroma subsampling                       : 4:2:0\nBit depth                                : 8 bits\nScan type                                : Progressive\nBits/(Pixel*Frame)                       : 0.039\nStream size                              : 56.0 MiB (94%)\nEncoded date                             : UTC 2014-02-16 17:57:01\nTagged date                              : UTC 2014-02-16 17:57:01\n\nAudio\nID                                       : 2\nFormat                                   : AAC\nFormat/Info                              : Advanced Audio Codec\nFormat profile                           : LC\nCodec ID                                 : 40\nDuration                                 : 3mn 50s\nBit rate mode                            : Variable\nBit rate                                 : 126 Kbps\nChannel(s)                               : 2 channels\nChannel positions                        : Front: L R\nSampling rate                            : 44.1 KHz\nCompression mode                         : Lossy\nStream size                              : 3.46 MiB (6%)\nEncoded date                             : UTC 2014-02-16 17:55:32\nTagged date                              : UTC 2014-02-16 17:55:32\n\nShared By Sbyky\n","torrent":{"xt":"urn:btih:ca60c26da98a18f76afafbdb6f15f6930d7a2ef4","amp;dn":"Angel+Haze+Ft.+Sia+-+Battle+Cry+%5BNSFW%5D+1080p+%5BSbyky%5D","amp;tr":["udp%3A%2F%2Ftracker.openbittorrent.com%3A80","udp%3A%2F%2Fopen.demonii.com%3A1337","udp%3A%2F%2Ftracker.coppersurfer.tk%3A6969","udp%3A%2F%2Fexodus.desync.com%3A6969"],"infoHash":"ca60c26da98a18f76afafbdb6f15f6930d7a2ef4","infoHashBuffer":{"type":"Buffer","data":[202,96,194,109,169,138,24,247,106,250,251,219,111,21,246,147,13,122,46,244]},"announce":[],"urlList":[]}}